/* XPM */
static char * backtobasics_xpm[] = {
"64 64 593 2",
"  	c None",
". 	c #56F129",
"+ 	c #56F029",
"@ 	c #55F128",
"# 	c #55F129",
"$ 	c #54F127",
"% 	c #52F321",
"& 	c #4FF41C",
"* 	c #4CF618",
"= 	c #4AF813",
"- 	c #48F910",
"; 	c #48F90F",
"> 	c #47F90F",
", 	c #4AF812",
"' 	c #4CF716",
") 	c #4EF51B",
"! 	c #51F31F",
"~ 	c #54F225",
"{ 	c #56F128",
"] 	c #54F126",
"^ 	c #4FF51E",
"/ 	c #49F912",
"( 	c #44FC07",
"_ 	c #42FD05",
": 	c #42FD04",
"< 	c #43FC05",
"[ 	c #47FB08",
"} 	c #4BFA0C",
"| 	c #4DFA0E",
"1 	c #4CFA0D",
"2 	c #48FB0A",
"3 	c #42FC05",
"4 	c #47FA0D",
"5 	c #4DF619",
"6 	c #53F224",
"7 	c #51F321",
"8 	c #4BF715",
"9 	c #44FC05",
"0 	c #46FC06",
"a 	c #4AFA0A",
"b 	c #53F713",
"c 	c #5AF51A",
"d 	c #5CF41E",
"e 	c #5CF220",
"f 	c #5BF120",
"g 	c #59F11F",
"h 	c #57F11E",
"i 	c #58F11F",
"j 	c #5AF11F",
"k 	c #5BF220",
"l 	c #5CF31E",
"m 	c #5AF51B",
"n 	c #56F716",
"o 	c #4DFA0D",
"p 	c #47FC07",
"q 	c #43FD05",
"r 	c #4FF41E",
"s 	c #53F225",
"t 	c #49F811",
"u 	c #44FC06",
"v 	c #4EFA0C",
"w 	c #59F617",
"x 	c #5DF41D",
"y 	c #53F21C",
"z 	c #48F119",
"A 	c #39F113",
"B 	c #2CF10E",
"C 	c #22F10A",
"D 	c #1AF207",
"E 	c #15F205",
"F 	c #13F204",
"G 	c #12F204",
"H 	c #14F204",
"I 	c #19F206",
"J 	c #1FF109",
"K 	c #28F10D",
"L 	c #34F111",
"M 	c #43F117",
"N 	c #50F11C",
"O 	c #59F31E",
"P 	c #5CF51A",
"Q 	c #51F910",
"R 	c #45FC06",
"S 	c #46FA0D",
"T 	c #52F223",
"U 	c #55F127",
"V 	c #49F812",
"W 	c #60F51D",
"X 	c #58F21E",
"Y 	c #3FF115",
"Z 	c #28F10C",
"` 	c #1CF108",
" .	c #0FF203",
"..	c #10F203",
"+.	c #11F203",
"@.	c #19F106",
"#.	c #24F10B",
"$.	c #36F112",
"%.	c #52F21C",
"&.	c #61F41F",
"*.	c #56F815",
"=.	c #46F90D",
"-.	c #4FF41D",
";.	c #43FC07",
">.	c #5FF41D",
",.	c #5DF220",
"'.	c #36F212",
").	c #19F107",
"!.	c #13F104",
"~.	c #12F104",
"{.	c #16F105",
"].	c #29F10D",
"^.	c #55F21D",
"/.	c #62F321",
"(.	c #50F911",
"_.	c #41FD04",
":.	c #4AF714",
"<.	c #53F125",
"[.	c #42FD03",
"}.	c #55F714",
"|.	c #61F221",
"1.	c #45F118",
"2.	c #16F205",
"3.	c #12F203",
"4.	c #11F204",
"5.	c #12EF04",
"6.	c #13ED05",
"7.	c #13EB06",
"8.	c #13EA06",
"9.	c #13EC05",
"0.	c #12EE05",
"a.	c #10F202",
"b.	c #35F112",
"c.	c #5EF121",
"d.	c #46FA0B",
"e.	c #52F323",
"f.	c #5BF51A",
"g.	c #55F21E",
"h.	c #0DF202",
"i.	c #11F403",
"j.	c #17DB0C",
"k.	c #1DC215",
"l.	c #279923",
"m.	c #307531",
"n.	c #365B3A",
"o.	c #394B40",
"p.	c #3C4542",
"q.	c #3B4840",
"r.	c #37553C",
"s.	c #326B34",
"t.	c #2A8C28",
"u.	c #20B619",
"v.	c #18D50E",
"w.	c #11F502",
"x.	c #0EF202",
"y.	c #1BF107",
"z.	c #4AF11A",
"A.	c #5DF41E",
"B.	c #43FC06",
"C.	c #50F31F",
"D.	c #52F222",
"E.	c #45FA0B",
"F.	c #4CFA0C",
"G.	c #5FF31E",
"H.	c #46F118",
"I.	c #1AF107",
"J.	c #10F901",
"K.	c #1BCB12",
"L.	c #289226",
"M.	c #336536",
"N.	c #3B4541",
"O.	c #3B4442",
"P.	c #3A4641",
"Q.	c #3A4840",
"R.	c #3A4A40",
"S.	c #3A4940",
"T.	c #3A4741",
"U.	c #3B4542",
"V.	c #3C4243",
"W.	c #36583B",
"X.	c #2C842B",
"Y.	c #1FB818",
"Z.	c #14F105",
"`.	c #5DF320",
" +	c #54F714",
".+	c #42FC06",
"++	c #4EFA0E",
"@+	c #63F321",
"#+	c #3AF113",
"$+	c #14F104",
"%+	c #10F701",
"&+	c #14E508",
"*+	c #2B872A",
"=+	c #36593A",
"-+	c #3A4841",
";+	c #3B4242",
">+	c #3C4143",
",+	c #3C4043",
"'+	c #38523D",
")+	c #316F32",
"!+	c #1BCC11",
"~+	c #0FFC00",
"{+	c #27F10C",
"]+	c #5EF221",
"^+	c #57F717",
"/+	c #50F31E",
"(+	c #32F111",
"_+	c #1CC613",
":+	c #355D39",
"<+	c #394B3F",
"[+	c #36593B",
"}+	c #298F28",
"|+	c #1FB619",
"1+	c #1ACE10",
"2+	c #19D80D",
"3+	c #19D30E",
"4+	c #1DBF16",
"5+	c #269E22",
"6+	c #326B35",
"7+	c #384F3E",
"8+	c #269C22",
"9+	c #11F303",
"0+	c #52F322",
"a+	c #48FC08",
"b+	c #5FF31F",
"c+	c #37F112",
"d+	c #20B41A",
"e+	c #394C3F",
"f+	c #37533C",
"g+	c #2E7C2E",
"h+	c #1ACC11",
"i+	c #0FFA00",
"j+	c #10F602",
"k+	c #0FFB00",
"l+	c #16DF0A",
"m+	c #289525",
"n+	c #2A8A29",
"o+	c #14E608",
"p+	c #50F90F",
"q+	c #44FB09",
"r+	c #43FD04",
"s+	c #5BF51B",
"t+	c #24A61F",
"u+	c #2E7B2E",
"v+	c #1CC713",
"w+	c #10F801",
"x+	c #16DF0B",
"y+	c #299126",
"z+	c #37533D",
"A+	c #3B4243",
"B+	c #2D812C",
"C+	c #15E508",
"D+	c #30F110",
"E+	c #5DF31F",
"F+	c #49FB0A",
"G+	c #48F811",
"H+	c #58F717",
"I+	c #51F11D",
"J+	c #18F106",
"K+	c #25A021",
"L+	c #394F3E",
"M+	c #23AA1E",
"N+	c #10F702",
"O+	c #11F402",
"P+	c #1CC514",
"Q+	c #346237",
"R+	c #2F782F",
"S+	c #12EF05",
"T+	c #5EF41E",
"U+	c #4EF51A",
"V+	c #48F912",
"W+	c #4DF90E",
"X+	c #60F221",
"Y+	c #21F10A",
"Z+	c #21B21A",
"`+	c #37543C",
" @	c #1EC015",
".@	c #12F004",
"+@	c #2D822D",
"@@	c #54F11D",
"#@	c #59F619",
"$@	c #43FB09",
"%@	c #62F320",
"&@	c #3AF114",
"*@	c #346337",
"=@	c #20B719",
"-@	c #394E3E",
";@	c #23A71F",
">@	c #1FF209",
",@	c #62F221",
"'@	c #4CFB0C",
")@	c #53F226",
"!@	c #55F813",
"~@	c #57F21E",
"{@	c #2B8A29",
"]@	c #259F22",
"^@	c #355C39",
"/@	c #346138",
"(@	c #19D40E",
"_@	c #3DF115",
":@	c #5EF41C",
"<@	c #45FB09",
"[@	c #47FC08",
"}@	c #60F41F",
"|@	c #2AF10D",
"1@	c #1DC514",
"2@	c #11F602",
"3@	c #21B21B",
"4@	c #299027",
"5@	c #59F21E",
"6@	c #4DFA0C",
"7@	c #4DF61A",
"8@	c #54F226",
"9@	c #4BF615",
"0@	c #52F911",
"a@	c #50F21C",
"b@	c #346437",
"c@	c #14E707",
"d@	c #2D832C",
"e@	c #19D30F",
"f@	c #5BF519",
"g@	c #46FB09",
"h@	c #54F125",
"i@	c #45FC07",
"j@	c #5DF51B",
"k@	c #1FBA18",
"l@	c #394A40",
"m@	c #1EBC17",
"n@	c #15E708",
"o@	c #3A4B40",
"p@	c #2C852B",
"q@	c #5AF31E",
"r@	c #50F41E",
"s@	c #57F31E",
"t@	c #20F10A",
"u@	c #317032",
"v@	c #14E807",
"w@	c #25A121",
"x@	c #3B4342",
"y@	c #15E408",
"z@	c #4CF11B",
"A@	c #50F80F",
"B@	c #49F911",
"C@	c #4AF912",
"D@	c #4BF11A",
"E@	c #1BC813",
"F@	c #21B31A",
"G@	c #15E209",
"H@	c #37563C",
"I@	c #3B4641",
"J@	c #299226",
"K@	c #0FF202",
"L@	c #59F51A",
"M@	c #3BF114",
"N@	c #326835",
"O@	c #394D3F",
"P@	c #24A320",
"Q@	c #18D70D",
"R@	c #355F38",
"S@	c #38533D",
"T@	c #279924",
"U@	c #26F10C",
"V@	c #50F41F",
"W@	c #56F02A",
"X@	c #5BF21F",
"Y@	c #1BCA12",
"Z@	c #3A4A3F",
"`@	c #24A41F",
" #	c #17DE0B",
".#	c #355B39",
"+#	c #298E28",
"@#	c #16F206",
"##	c #4BFA0D",
"$#	c #4BF618",
"%#	c #4EF41C",
"&#	c #5CF120",
"*#	c #1CF208",
"=#	c #13EC06",
"-#	c #336935",
";#	c #394A3F",
">#	c #12F303",
",#	c #356137",
"'#	c #1DC016",
")#	c #0CF202",
"!#	c #51F11C",
"~#	c #54F814",
"{#	c #48F810",
"]#	c #4CF617",
"^#	c #4EF90F",
"/#	c #57F11F",
"(#	c #1FBD17",
"_#	c #3C3F44",
":#	c #365A3A",
"<#	c #269D22",
"[#	c #307431",
"}#	c #12ED05",
"|#	c #41F116",
"1#	c #53F814",
"2#	c #52F11D",
"3#	c #317132",
"4#	c #22AC1D",
"5#	c #15E409",
"6#	c #16DE0B",
"7#	c #49F119",
"8#	c #307132",
"9#	c #20B51A",
"0#	c #38503D",
"a#	c #22AF1C",
"b#	c #2EF10F",
"c#	c #61F320",
"d#	c #43FB08",
"e#	c #47F90E",
"f#	c #58F618",
"g#	c #45F117",
"h#	c #1ACF10",
"i#	c #355E39",
"j#	c #299127",
"k#	c #2A8929",
"l#	c #43FC08",
"m#	c #46F90E",
"n#	c #59F618",
"o#	c #15E309",
"p#	c #2F7630",
"q#	c #316E33",
"r#	c #28F20D",
"s#	c #17D90C",
"t#	c #346338",
"u#	c #23A81E",
"v#	c #19D10F",
"w#	c #356039",
"x#	c #2FF10F",
"y#	c #61F31F",
"z#	c #4BF616",
"A#	c #52F713",
"B#	c #53F11D",
"C#	c #20B21A",
"D#	c #1ACD11",
"E#	c #5EF41D",
"F#	c #44FA0A",
"G#	c #4DF51A",
"H#	c #13F205",
"I#	c #1BCB11",
"J#	c #2D7C2E",
"K#	c #5AF619",
"L#	c #51F320",
"M#	c #1EF109",
"N#	c #10F302",
"O#	c #52F11C",
"P#	c #53F813",
"Q#	c #3A4B3F",
"R#	c #289325",
"S#	c #19D20F",
"T#	c #3C4044",
"U#	c #18F206",
"V#	c #49FA0B",
"W#	c #4FF51C",
"X#	c #48FA0E",
"Y#	c #3DF114",
"Z#	c #0FF103",
"`#	c #2B8B29",
" $	c #336636",
".$	c #38503E",
"+$	c #5DF21F",
"@$	c #4FF90F",
"#$	c #4DF11B",
"$$	c #37563B",
"%$	c #1DC015",
"&$	c #2D7F2D",
"*$	c #2B862B",
"=$	c #11F103",
"-$	c #3CF114",
";$	c #59F519",
">$	c #47FA0C",
",$	c #58F21D",
"'$	c #326E33",
")$	c #259F21",
"!$	c #1CC513",
"~$	c #17F106",
"{$	c #4EF11B",
"]$	c #4EF90E",
"^$	c #5CF619",
"/$	c #1AD110",
"($	c #365C3A",
"_$	c #26F10B",
":$	c #5AF31D",
"<$	c #47FB09",
"[$	c #4FF41F",
"}$	c #51F90F",
"|$	c #54F21D",
"1$	c #355F39",
"2$	c #279824",
"3$	c #4CF715",
"4$	c #52F224",
"5$	c #4AF910",
"6$	c #60F41D",
"7$	c #30F20F",
"8$	c #10F103",
"9$	c #2C822C",
"0$	c #2A8D28",
"a$	c #3D3E44",
"b$	c #37543D",
"c$	c #1CC813",
"d$	c #4DF51B",
"e$	c #1EBF16",
"f$	c #14E708",
"g$	c #12F103",
"h$	c #1DC315",
"i$	c #317033",
"j$	c #44F217",
"k$	c #5DF51A",
"l$	c #47FA0E",
"m$	c #40F116",
"n$	c #63F222",
"o$	c #4CF90E",
"p$	c #61F222",
"q$	c #57F21F",
"r$	c #56F715",
"s$	c #49F714",
"t$	c #4AF713",
"u$	c #52F812",
"v$	c #56F11E",
"w$	c #5CF51B",
"x$	c #53F223",
"y$	c #48F11A",
"z$	c #5EF31F",
"A$	c #46FB08",
"B$	c #48FA0B",
"C$	c #60F41E",
"D$	c #29F10C",
"E$	c #4FF51D",
"F$	c #63F320",
"G$	c #14F205",
"H$	c #5FF220",
"I$	c #53F812",
"J$	c #4EF41D",
"K$	c #33F111",
"L$	c #5FF221",
"M$	c #4BF716",
"N$	c #4FF11C",
"O$	c #1EF108",
"P$	c #42F116",
"Q$	c #5FF320",
"R$	c #47FA0B",
"S$	c #57F617",
"T$	c #5DF121",
"U$	c #2DF10E",
"V$	c #52F813",
"W$	c #64F221",
"X$	c #49F219",
"Y$	c #1DF108",
"Z$	c #16F106",
"`$	c #39F213",
" %	c #5AF618",
".%	c #51F322",
"+%	c #4CF519",
"@%	c #4BF910",
"#%	c #5BF619",
"$%	c #40F115",
"%%	c #25F10B",
"&%	c #11F104",
"*%	c #57F21D",
"=%	c #5FF51C",
"-%	c #50F912",
";%	c #4FF911",
">%	c #59F716",
",%	c #4CF11A",
"'%	c #51F811",
")%	c #49FA0C",
"!%	c #5AF41B",
"~%	c #44F117",
"{%	c #25F10C",
"]%	c #19F207",
"^%	c #23F20B",
"/%	c #5CF31D",
"(%	c #4DF717",
"_%	c #46FC08",
":%	c #50F910",
"<%	c #62F122",
"[%	c #62F222",
"}%	c #63F122",
"|%	c #53F714",
"1%	c #47F910",
"2%	c #45FA0C",
"3%	c #49F90E",
"4%	c #4DF910",
"5%	c #4EF811",
"6%	c #4EF812",
"7%	c #4DF811",
"8%	c #4AF90F",
"9%	c #46FA0C",
"0%	c #4AF715",
"a%	c #4EF51C",
"b%	c #55F028",
"                                                                                                                                ",
"                                                                                                                                ",
"                                                      . + @ @ @ @ @ @ # +                                                       ",
"                                              @ $ $ % & * = - ; > - , ' ) ! ~ @ $                                               ",
"                                        { ] ] ^ / ( _ : < [ } | | 1 2 < : 3 < 4 5 6 ] ]                                         ",
"                                    @ 6 7 8 9 0 a b c d e f g h h i j k l m n o p q ; r 6 $                                     ",
"                                  s r t u v w x y z A B C D E F G H I J K L M N O P Q R S ) T +                                 ",
"                              U 7 V _ Q W X Y Z ` G  .....+.+.+.+.+.+..... ...@.#.$.%.&.*.q =.-.]                               ",
"                            ] ) ;.2 >.,.'.).!.+.+.+.+.G G G G G G G G G G G +.+.+.~.{.].^./.(._.:.<.$                           ",
"                        U s 8 [.}.|.1.2...+.G 3.+.+.4.5.6.7.8.8.8.7.9.0.~.+.+.+.~.G G +.a.b.c.c 0 d.e.]                         ",
"                      @ T ; p f.g.].h.+.G ~.+.i.~.j.k.l.m.n.o.p.q.r.s.t.u.v.7.w.+.~.G G 4.x.y.z.A.o B.C.]                       ",
"                    @ D.E.F.G.H.I...G G ~.i.J.K.L.M.N.O.P.Q.R.R.R.S.T.U.V.W.X.Y.~.w.~.G G G ..Z.$.`. +.+-.]                     ",
"                  U T E.++@+#+$+..+.~.~.%+&+*+=+-+S.R.S.N.;+>+,+,+V.O.Q.R.S.T.'+)+!+~++.~.G G +.+.{+]+^+.+/+]                   ",
"                  s > F.@+(+..+.G G +.i._+:+<+R.<+R.T.[+}+|+1+2+3+4+5+6+Q.S.R.R.R.7+8+9++.~.G G +.+.J ,.}.q 0+]                 ",
"                ] 8 a+b+c+..G G ~.+.5.d+e+S.R.R.f+g+h+i+%+w.9+9+9+i.j+k+l+m+=+<+R.R.T.n+o++.~.G G G +.#.,.p+q+6 {               ",
"              U ) r+s+M !.+.G ~.+.9+t+P.S.S.Q.u+v+w+w.G ~.G G G G G G ~.i.J.x+y+z+Q.R.A+B+C+9+~.G G +.+.D+E+F+G+]               ",
"              % .+H+I+J++.G ~.+.J.K+S.R.Q.L+M+8.N++.~.G G G G G G G G G G +.O++.P+Q+O.<+O.R+S+9+~.G G +.+.Y T+< U+@             ",
"            s V+W+X+Y+..+.G ~.w+Z+'+R.S.`+ @.@+.~.G G G G G G G G G G G G G ~.+.9+l+)+U.<+S.+@N++.G G G +.~.@@#@$@0+            ",
"          @ r ;.%@&@x.G G ~.+.v.*@S.R.z+=@w.+.G G G G G G G G G G G G G G G G G ~.+.l+s.S.<+-@;@N++.G G G ..>@,@'@* )@          ",
"          6 t !@~@+.+.G G ~.6.{@O.<+<+]@J.+.~.G G G G G G G G G G G G G G G G G G ~.j+!+^@R.S./@(@+.G G G G  ._@:@<@0+          ",
"        { 7 [@}@|@+.G G ~.+.1@T.R.N.B+2@+.~.G G G G G G G G G G G G G G G G G G G ~.~.J.3@S.<+U.4@0.~.G G G +.@.5@6@7@8@        ",
"        ] 9@0@a@{.G G G ~.j+b@T.S.[+c@9+~.G G G G G G G G G G G G G G G G G G G G G ~.+.w.d@T.R.e+e@+.G G G G !.&@f@g@h@        ",
"        ] i@j@(+~.G G G j+k@U.l@>+m@+.~.G G G G G G G G G G G G G G G G G G G G G G G ~.9+n@o@R.N.p@i.~.G G G +.#.q@p r@$       ",
"      @ ^ a+s@t@+.G ~.+.J.Q+S.T.u@v@~.G G G G G G G G G G G G G G G G G G G G G G G G G ~.9+w@x@R.U.y@9+~.G G +.2.z@A@B@U       ",
"      $ C@Q D@E +.~.+.w+E@<+R.R.F@3.G G G G G G G G G G G G G G G G G G G G G G G G G G G ~.G@H@S.I@J@w+9+~.G 3.K@A s+< ]       ",
"      $ ;.L@M@ .+.+.9+k.N@<+R.O@P@i.~.G G G G G G G G G G G G G G G G G G G G G G G G G ~.O+Q@R@Q.R.S@T@v@i.~.G ..U@e < V@W@    ",
"      % : X@|@..G ~.Y@r.S.R.Z@R.e+`@j+~.G G G G G G G G G G G G G G G G G G G G G G G ~.i. #.#R.R.<+R.R.+#7.+.G +.@#g ##$#.     ",
"    + %#i@&#*#..+.=#-#T.<+o@o@o@;#O.v+w.+.G G G G G G G G G G G G G G G G G G G G G ~.+.>#,#S.<+o@o@o@R.T.'#~.~.G )#!#~#{#@     ",
"    + ]#^#/#G +.i.(#_#<+o@o@o@o@o@R.:#~.+.G G G G G G G G G G G G G G G G G G G G G +.w+<#o.<+o@o@o@o@<+I@[#}#~.G h.|#f.E.@     ",
"    @ V 1#2#h.~.J.3#T.o@o@o@o@o@o@<+<+4#J.~.G G G G G G G G G G G G G G G G G G G G 9+5#*@R.o@o@o@o@o@o@R.O.6#+.G x.$.>.q+s     ",
"    @ > ^+7#h.+.0.R.R.o@o@o@o@o@o@o@<+8#9++.G G G G G G G G G G G G G G G G G G G ~.j+9#0#R.o@o@o@o@o@o@<+;+a#w.G K@b#c#d#T     ",
"    @ e#f#g#h.w.h#P.<+o@o@o@o@o@o@o@R.i#3+i.G G G G G G G G G G G G G G G G G G G +.~.j#T.R.o@o@o@o@o@o@o@N.k#N+G  .|@,@l#e.    ",
"    @ m#n#M h.N+9#T.o@o@o@o@o@o@o@o@R.'+u.w.~.G G G G G G G G G G G G G G G G G G +.o#p#Q.o@o@o@o@o@o@o@o@T.q#w+G  .r#,@l#e.    ",
"    @ > f#1.h.w+M+Q.o@o@o@o@o@o@o@o@R.S.w@j++.G G G G G G G G G G G G G G G G G G +.s#*@S.o@o@o@o@o@o@o@o@Q.t#J.G  .|@,@d#T     ",
"    @ V n z.h.w+u#Q.o@o@o@o@o@o@o@o@<+I@L.+.+.G G G G G G G G G G G G G G G G G G +.v#`+R.o@o@o@o@o@o@o@o@Q.w#J.G K@x#y#$@6     ",
"    @ z#A#B#h.%+C#T.o@o@o@o@o@o@o@o@o@T.k#}#+.G G G G G G G G G G G G G G G G G G +.D#<+R.o@o@o@o@o@o@o@o@-+s.w+G x.c+E#F#U     ",
"    + G#o i H#j+k.T.o@o@o@o@o@o@o@o@o@T.*+=#+.G G G G G G G G G G G G G G G G G G +.I#S.R.o@o@o@o@o@o@o@o@I@J#%+G h.M K#> @     ",
"      L#( &#M#N#o#I@Z@o@o@o@o@o@o@o@<+T.n+0.+.G G G G G G G G G G G G G G G G G G +.D#e+R.o@o@o@o@o@o@o@o@O.<#2@+.h.O#P#8 #     ",
"      ] < l B  .J.r.S.o@o@o@o@o@o@o@Q#T.R#9++.G G G G G G G G G G G G G G G G G G +.S#H@S.o@o@o@o@o@o@o@<+T#_+9++.U#j V#W#+     ",
"      U X##@Y#Z#N+`#N.Q#o@o@o@o@o@o@R.R.`@j++.G G G G G G G G G G G G G G G G G G +.j. $S.o@o@o@o@o@o@o@S..$v@+...K +$3 6       ",
"      $ G#@$#$2.9+h#,+<+o@o@o@o@o@o@R.$$%$w.~.G G G G G G G G G G G G G G G G G G +.v@&$T.<+o@o@o@o@o@<+N.*$0.=$ .-$;$>$$       ",
"        6 [@,$C =$6.'$T.<+o@o@o@o@o@R.M.G@9+G G G G G G G G G G G G G G G G G G G +.w.)$S.R.o@o@o@o@<+R.-+!$+.+.~${$]$) $       ",
"        ] , ^$$.~.~.m@R.R.<+o@o@o@<+R.j#i+~.G G G G G G G G G G G G G G G G G G G ~.i./$($R.o@o@o@o@R.Q.g+o++.+._$:$<$6         ",
"        $ [$}$|${.+.7.n+-+R.o@o@<+T.1$C+9+~.G G G G G G G G G G G G G G G G G G G G +.j+2$I@<+o@o@<+S.[+D#w.~.!.Y w 3$]         ",
"          4$5$6$7$8$9+c@9$x@T.-+V.[+(@w.~.G G G G G G G G G G G G G G G G G G G G G ~.9+0.0$a$T.-+x@b$c$i.+.=$y.+$W+7 U         ",
"          $ d$P#k G +.+.9+e$u+u@<#f$g$+.~.G G G G G G G G G G G G G G G G G G G G G G ~.+..@h$u+i$8+v@+.+.~...j$k$= 6           ",
"            T l$}@m$ .+.~.O+w+J.j++.~.G G G G G G G G G G G G G G G G G G G G G G G G G G ~.i.w+J.j++.~.G ..#.n$o$V@+           ",
"            + W###p$K K@G G G G G G G G G G G G G G G G G G G G G G G G G G G G G G G G G G G G G G G G ..J+q$r$s$8@            ",
"              $ t$u$v$` ..G G G G G G G G G G G G G G G G G G G G G G G G G G G G G G G G G G G G G G +.F 1.w$d.x$              ",
"                ~ 4 #@y$E +.G G G G G G G G G G G G G G G G G G G G G G G G G G G G G G G G G G G G +.+.b.z$A$7 U               ",
"                $ e.B$C$Y#!.+.G G G G G G G G G G G G G G G G G G G G G G G G G G G G G G G G G G +.~.D$X+F.E$]                 ",
"                  ] V@o$F$&@G$..G G G G G G G G G G G G G G G G G G G G G G G G G G G G G G G G +.+.D$H$I$* ]                   ",
"                    $ J$o$&.M J+ .+.G G G G G G G G G G G G G G G G G G G G G G G G G G G G G ..+.K$L$I$M$s                     ",
"                      ] V@V#w$N$O$ .G G G G G G G G G G G G G G G G G G G G G G G G G G G G ..G$P$Q$o * s                       ",
"                        ] e.R$S$T$U$ .+.G G G G G G G G G G G G G G G G G G G G G G G G G ..M#2#E#[ E$]                         ",
"                          $ s t V$W$X$Y$!.+.+.G G G G G G G G G G G G G G G G G G +.+.G Z$`$p$ %>$.%]                           ",
"                            { ] +%@%#%E+$%%%{.K@..+.+.G G G G G G G G G G G +.+. .&%J $.*%=%-%:.6 U                             ",
"                                @ .%* ;%>%:$,%$.C +.h.x.....+.+.+.+.+...K@h.x.` D+1.~@f@'%8 [$8@                                ",
"                                    8@0+U+)%Q !%&#v$~%L {%*#E +.+.G$]%^%x#Y I+k /%r$V#(%7 6 +                                   ",
"                                        8@] r@V _%:%#@}@n$<%p$p$p$p$[%}%c#s+|%<$4 U+s ] @                                       ",
"                                            U U ] V@$#1%2%3%4%5%6%7%8%9%m#0%a%6 $ $                                             ",
"                                                  + . b%@ s T T 0+T 6 $ @ b%+                                                   ",
"                                                                                                                                ",
"                                                                                                                                "};
