/* XPM */
static char * backtobasics_16_xpm[] = {
"16 16 132 2",
"  	c None",
". 	c #47F517",
"+ 	c #42F813",
"@ 	c #38F90C",
"# 	c #35F90B",
"$ 	c #3DF80F",
"% 	c #44F614",
"& 	c #4EF41D",
"* 	c #51F41C",
"= 	c #37F60F",
"- 	c #22F408",
"; 	c #1DC215",
"> 	c #21A21F",
", 	c #229F20",
"' 	c #1CB718",
") 	c #1BEA09",
"! 	c #2AF809",
"~ 	c #45F415",
"{ 	c #2EF50C",
"] 	c #15EB07",
"^ 	c #2C7E2D",
"/ 	c #2A8B29",
"( 	c #22AE1C",
"_ 	c #21B21B",
": 	c #279824",
"< 	c #307232",
"[ 	c #18D20F",
"} 	c #1DF805",
"| 	c #42F413",
"1 	c #37F40F",
"2 	c #12F404",
"3 	c #316E33",
"4 	c #23AD1D",
"5 	c #13EC06",
"6 	c #12F104",
"7 	c #11F203",
"8 	c #13ED05",
"9 	c #1BCB12",
"0 	c #346536",
"a 	c #16DC0B",
"b 	c #22F508",
"c 	c #49F518",
"d 	c #47F418",
"e 	c #1FF806",
"f 	c #23A220",
"g 	c #289426",
"h 	c #11F403",
"i 	c #12F204",
"j 	c #1FBD17",
"k 	c #2D7D2E",
"l 	c #0EF501",
"m 	c #39F40F",
"n 	c #41F513",
"o 	c #14DF0A",
"p 	c #346138",
"q 	c #1CC913",
"r 	c #16DE0A",
"s 	c #336B35",
"t 	c #1CC115",
"u 	c #26F30A",
"v 	c #4DF51A",
"w 	c #36F20E",
"x 	c #249723",
"y 	c #3C4242",
"z 	c #12F004",
"A 	c #11F303",
"B 	c #289326",
"C 	c #3D3D45",
"D 	c #2F7530",
"E 	c #1CE30C",
"F 	c #4EF519",
"G 	c #35E811",
"H 	c #2A802B",
"I 	c #3A4641",
"J 	c #3C4143",
"K 	c #19D30F",
"L 	c #38543D",
"M 	c #3A4741",
"N 	c #345E38",
"O 	c #1BD80E",
"P 	c #4FF51A",
"Q 	c #3DEB14",
"R 	c #288629",
"S 	c #3B4641",
"T 	c #3B4442",
"U 	c #1CC314",
"V 	c #11F502",
"W 	c #3A4742",
"X 	c #3A4840",
"Y 	c #326536",
"Z 	c #23DA10",
"` 	c #4DF61A",
" .	c #44F715",
"..	c #26A61F",
"+.	c #3C4243",
"@.	c #15E10A",
"#.	c #346337",
"$.	c #3B4342",
"%.	c #29862A",
"&.	c #2EEA0F",
"*.	c #4FF31F",
"=.	c #4CF61B",
"-.	c #2BE50F",
";.	c #2B832B",
">.	c #269E22",
",.	c #1CC514",
"'.	c #1BCF11",
").	c #42F713",
"!.	c #41F515",
"~.	c #17FB03",
"{.	c #0FF901",
"].	c #10F602",
"^.	c #0FFC00",
"/.	c #2EF60C",
"(.	c #4FF31E",
"_.	c #3EF413",
":.	c #1EF207",
"<.	c #0EF102",
"[.	c #10F203",
"}.	c #0FF103",
"|.	c #11F103",
"1.	c #2EF30D",
"2.	c #4CF41B",
"3.	c #49F41A",
"4.	c #35F30F",
"5.	c #21F109",
"6.	c #18F106",
"7.	c #2AF20C",
"8.	c #41F314",
"9.	c #4EF31C",
"0.	c #51F31C",
"a.	c #50F41C",
"                                ",
"          . + @ # $ % &         ",
"      * = - ; > , ' ) ! ~       ",
"    * { ] ^ / ( _ : < [ } |     ",
"    1 2 3 4 5 6 7 8 9 0 a b c   ",
"  d e f g h 6 i i 6 7 j k l m   ",
"  n o p q 7 6 i i i 7 r s t u v ",
"  w x y p z 7 i i i A B C D E F ",
"  G H I J K h i i i h L M N O P ",
"  Q R S T U V i i i h W X Y Z ` ",
"   ...X +.@.A i i i A #.$.%.&.*.",
"  =.-.;.>.h 6 i i i 7 ,.< '.).  ",
"    !.~.{.6 i i i i 6 ].^./.(.  ",
"      _.:.<.[.7 7 7 }.|.1.2.    ",
"        3.4.5.6 }.6.7.8.(.      ",
"            9.0.0.a.*.          "};
